# xmcd CD database file
#
# Track frame offsets:
#	150
#	34014
#	61833
#	80790
#	112820
#	130235
#	157129
#	183680
#	211761
#	231595
#
# Disc length: 3359 seconds
#
# Revision: 0
# Processed by: cddbd v1.4PL0 Copyright (c) Steve Scherf et al.
# Submitted via: CDex 1.50
#
DISCID=8a0d1d0a
DTITLE=Robert de Fresnes - Atlantis
DYEAR=1998
DGENRE=New Age
TTITLE0=Atlantis
TTITLE1=Discovery
TTITLE2=Poseidia (the sirens call)
TTITLE3=Dolphin
TTITLE4=Kimmeriou
TTITLE5=Alcinous
TTITLE6=Visions from the past
TTITLE7=Gateway to the Gods
TTITLE8=Requiem
TTITLE9=Dolphin reprise
EXTD=YEAR: 1998
EXTT0=
EXTT1=
EXTT2=
EXTT3=
EXTT4=
EXTT5=
EXTT6=
EXTT7=
EXTT8=
EXTT9=
PLAYORDER=
